#!OML:ASF H:\LiuWeirdWalks\Patient Classification 1\Patient 1\Session 1\male.ASF
:FULLY-SPECIFIED
:DEGREES
946
root 2.2521 17.5483 12.5161 8.41704 6.23938 9.90104
lowerback 12.7481 -4.45308 -2.51643
upperback 0.794526 -6.05588 3.08178
thorax -5.68323 -2.87242 5.70379
lowerneck -18.562 3.75764 14.9764
upperneck 15.7223 4.53644 -17.5055
head 8.74005 1.32454 -8.05745
rclavicle -1.27222e-014 -4.77083e-015
rhumerus -8.41655 -51.3507 -5.97885
rradius 25.1341
rwrist 11.1029
rhand -17.6075 5.32923
rfingers 7.12502
rthumb 8.64908 -24.4736
lclavicle -1.27222e-014 -4.77083e-015
lhumerus -18.9373 21.1091 -1.20657
lradius 37.276
lwrist 18.9407
lhand -22.6427 7.10567
lfingers 7.12502
lthumb 3.78813 37.0517
rfemur -38.0169 -0.914535 -1.33645
rtibia 30.2967
rfoot 2.7909 -20.8075
rtoes -9.24935
lfemur 7.73435 -0.815499 -27.4909
ltibia 20.3757
lfoot -8.04771 9.95142
ltoes -25.198
947
root 2.22624 17.5514 12.6488 8.45453 6.24318 10.036
lowerback 12.6703 -4.53562 -2.15255
upperback 0.817845 -6.10453 3.19639
thorax -5.63534 -2.90582 5.62
lowerneck -18.6459 3.88836 15.2531
upperneck 15.5784 4.7103 -17.9712
head 8.76254 1.37738 -8.25678
rclavicle -1.11319e-014 -2.38542e-014
rhumerus -7.95596 -51.6037 -6.72179
rradius 25.0527
rwrist 11.3219
rhand -17.6538 5.38329
rfingers 7.12502
rthumb 8.60442 -24.4214
lclavicle -1.11319e-014 -2.38542e-014
lhumerus -19.5267 21.6974 -1.47473
lradius 37.7114
lwrist 19.3261
lhand -23.0222 7.31774
lfingers 7.12502
lthumb 3.42165 37.27
rfemur -38.1089 -0.858293 -1.40425
rtibia 30.9307
rfoot 3.86586 -20.3573
rtoes -8.60807
lfemur 7.76239 -0.66883 -27.3889
ltibia 20.948
lfoot -7.43436 9.36174
ltoes -25.744
948
root 2.1989 17.5541 12.7832 8.49258 6.23398 10.1997
lowerback 12.6288 -4.63299 -1.88494
upperback 1.02537 -6.18405 3.37565
thorax -5.39196 -2.96014 5.65345
lowerneck -19.4979 4.18615 15.394
upperneck 15.5957 5.06566 -18.3965
head 9.01379 1.47709 -8.41062
rclavicle 3.73715e-014 -9.54166e-015
rhumerus -7.03933 -52.345 -7.80329
rradius 24.9232
rwrist 11.6905
rhand -17.722 5.43188
rfingers 7.12502
rthumb 8.5386 -24.3755
lclavicle 3.73715e-014 -9.54166e-015
lhumerus -20 21.9895 -1.96011
lradius 37.0401
lwrist 17.6417
lhand -21.8037 7.57141
lfingers 7.12502
lthumb 4.59835 37.5015
rfemur -38.2012 -0.918491 -1.43241
rtibia 31.6549
rfoot 4.6479 -19.8838
rtoes -7.64181
lfemur 7.74281 -0.461364 -27.287
ltibia 21.5966
lfoot -6.78948 8.68216
ltoes -26.2751
949
root 2.16953 17.5569 12.9183 8.52571 6.2107 10.4169
lowerback 12.5554 -4.69314 -1.6275
upperback 1.12864 -6.22094 3.48422
thorax -5.25333 -2.98851 5.61518
lowerneck -19.8818 4.36342 15.58
upperneck 15.5618 5.28617 -18.783
head 9.13746 1.53924 -8.56803
rclavicle -4.37326e-014 0
rhumerus -6.47673 -52.6841 -8.62417
rradius 24.8487
rwrist 11.8769
rhand -17.8032 5.47097
rfingers 7.12502
rthumb 8.46025 -24.3396
lclavicle -4.37326e-014 0
lhumerus -20.3635 22.0974 -2.3455
lradius 36.599
lwrist 16.3908
lhand -20.8728 7.76644
lfingers 7.12502
lthumb 5.49718 37.6751
rfemur -38.2934 -1.07306 -1.45182
rtibia 32.4886
rfoot 5.14671 -19.4192
rtoes -6.43804
lfemur 7.6935 -0.189922 -27.2035
ltibia 22.2827
lfoot -6.0878 7.87853
ltoes -26.7887
950
root 2.13815 17.5598 13.0547 8.53894 6.18189 10.6893
lowerback 12.5007 -4.70664 -1.45472
upperback 1.23591 -6.20746 3.61582
thorax -5.11453 -2.98985 5.64252
lowerneck -20.356 4.49006 15.6028
upperneck 15.6254 5.46871 -19.0958
head 9.29757 1.57501 -8.6795
rclavicle 8.74653e-015 1.59028e-014
rhumerus -6.05777 -52.9074 -9.23372
rradius 24.8174
rwrist 11.9395
rhand -17.8849 5.53067
rfingers 7.12502
rthumb 8.38141 -24.283
lclavicle 8.74653e-015 1.59028e-014
lhumerus -20.5909 22.0558 -2.57538
lradius 36.0015
lwrist 15.128
lhand -19.9005 7.78701
lfingers 7.12502
lthumb 6.43588 37.6692
rfemur -38.363 -1.27638 -1.48588
rtibia 33.4259
rfoot 5.33898 -19.0311
rtoes -5.12654
lfemur 7.6454 0.112614 -27.1431
ltibia 22.9794
lfoot -5.30738 6.9585
ltoes -27.319
951
root 2.10488 17.5641 13.1918 8.52632 6.1602 10.9892
lowerback 12.4498 -4.64514 -1.31313
upperback 1.29792 -6.09759 3.77604
thorax -5.02907 -2.9405 5.70701
lowerneck -20.7126 4.47388 15.405
upperneck 15.7371 5.5205 -19.3135
head 9.41661 1.5487 -8.73373
rclavicle -6.91771e-014 -1.59028e-014
rhumerus -6.00367 -52.9272 -9.39144
rradius 24.8437
rwrist 11.8631
rhand -17.955 5.58192
rfingers 7.12502
rthumb 8.31378 -24.2345
lclavicle -6.91771e-014 -1.59028e-014
lhumerus -20.6503 21.8278 -2.48366
lradius 35.5542
lwrist 14.5237
lhand -19.3508 7.65707
lfingers 7.12502
lthumb 6.96656 37.5224
rfemur -38.3941 -1.48545 -1.52565
rtibia 34.4277
rfoot 5.22915 -18.7566
rtoes -3.88369
lfemur 7.60251 0.406943 -27.0827
ltibia 23.6786
lfoot -4.4307 5.93193
ltoes -27.8278
